<?xml version="1.0" encoding="UTF-8"?>
<svg id="Layer_2" data-name="Layer 2" xmlns="http://www.w3.org/2000/svg" viewBox="0 0 744 305.54">
  <defs>
    <style>
      .cls-1 {
        fill: none;
        stroke: #fff;
        stroke-miterlimit: 10;
        stroke-width: 3px;
      }

      .cls-2 {
        fill: #fff;
      }
    </style>
  </defs>
  <g id="Text_and_Design" data-name="Text and Design">
    <g id="_13-04-2023" data-name=" 13-04-2023">
      <g>
        <path class="cls-2" d="M166.88,134.77c2.29-10.92,6.21-21.33,11.79-31.23,9.46-16.8,22.46-30.2,39-40.2,16.53-10,34.66-15,54.4-15s37.86,4.94,54.4,14.8c16.53,9.87,29.6,23.2,39.2,40,5.73,10.02,9.73,20.57,12.04,31.63h40.54c-2.82-17.72-8.94-34.54-18.38-50.43-13.47-22.66-31.54-40.73-54.2-54.2-22.67-13.46-47.2-20.2-73.6-20.2s-51.27,6.74-73.8,20.2c-22.54,13.47-40.47,31.54-53.8,54.2-9.35,15.89-15.41,32.7-18.2,50.43h40.61Z"/>
        <polygon class="cls-2" points="515.95 134.77 531.53 94.4 547.64 134.77 589.92 134.77 533.13 0 476.33 134.77 515.95 134.77"/>
        <path class="cls-2" d="M448.52,200.77l-26.79,63.57h-47.26c14.4-13.6,25.6-29.6,33.6-48,2.22-5.11,4.12-10.3,5.73-15.57h-41.89c-1.74,4.28-3.75,8.47-6.04,12.57-9.47,16.94-22.4,30.27-38.8,40-16.4,9.74-34.47,14.6-54.2,14.6s-37.94-4.93-54.6-14.8c-16.67-9.86-29.8-23.2-39.4-40-2.31-4.04-4.33-8.16-6.08-12.37h-42.29c3.27,11.06,7.85,21.65,13.78,31.77,13.2,22.54,31.13,40.34,53.8,53.4,22.66,13.07,47.33,19.6,74,19.6,10.13,0,20.26-1.07,30.4-3.2h103.24l-.19,.46h45.6l39.36-102.03h-41.97Z"/>
        <polygon class="cls-2" points="573.99 200.77 614.72 302.8 660.72 302.8 617.73 200.77 573.99 200.77"/>
      </g>
      <g>
        <path class="cls-2" d="M74.65,190.57c-1.6,0-3.8-.55-6.6-1.65-2.8-1.1-4.97-1.65-6.5-1.65-2.27,0-4.03,1-5.3,3l-2.1-1.45c.57-.9,1.12-1.59,1.67-2.08s1.39-.94,2.52-1.38v-.45c-3.93-1.2-7.07-3.32-9.42-6.35s-3.52-6.63-3.52-10.8c0-5.37,1.88-9.74,5.62-13.12,3.75-3.38,8.52-5.08,14.32-5.08s10.53,1.69,14.3,5.08c3.77,3.38,5.65,7.76,5.65,13.12,0,5.03-1.68,9.21-5.05,12.53-3.37,3.32-7.7,5.17-13,5.57v.35c.1,.03,.38,.14,.85,.33,.47,.18,.78,.3,.93,.35s.43,.15,.85,.3c.42,.15,.72,.26,.92,.33s.48,.15,.85,.25c.37,.1,.68,.17,.95,.2s.57,.07,.9,.1,.67,.05,1,.05c1.9,0,3.37-.6,4.4-1.8l1.9,1.95c-1.83,1.53-3.88,2.3-6.15,2.3h.01Zm-21.75-11.33c3.33,2.92,7.48,4.38,12.45,4.38s9.12-1.46,12.45-4.38c3.33-2.92,5-6.74,5-11.47s-1.67-8.61-5-11.53-7.48-4.38-12.45-4.38-9.12,1.46-12.45,4.38c-3.33,2.92-5,6.76-5,11.53s1.67,8.56,5,11.47Z"/>
        <path class="cls-2" d="M124.47,181.75c-3.15,2.82-7.28,4.23-12.38,4.23s-9.23-1.41-12.38-4.23c-3.15-2.82-4.73-6.54-4.73-11.17v-16.15c0-1.93-.1-3.32-.3-4.15h3.05c-.17,.93-.25,2.32-.25,4.15v16.1c0,4.03,1.36,7.22,4.08,9.58,2.72,2.35,6.22,3.52,10.53,3.52s7.86-1.17,10.57-3.52c2.72-2.35,4.08-5.54,4.08-9.58v-16.1c0-1.63-.1-3.02-.3-4.15h3.05c-.2,1.13-.3,2.52-.3,4.15v16.15c0,4.63-1.58,8.36-4.72,11.17Z"/>
        <path class="cls-2" d="M135.25,185.27c.8-1.13,1.63-2.52,2.5-4.15l14.5-26.7c1-1.77,1.67-3.15,2-4.15h3.65c.33,1.17,.93,2.52,1.8,4.05l14.55,26.8c1.03,1.93,1.87,3.32,2.5,4.15h-3.25c-.33-.97-.98-2.35-1.95-4.15l-3-5.35h-25.1l-3,5.35c-1.03,1.87-1.68,3.25-1.95,4.15h-3.25Zm9.35-11.7h22.75l-8.55-15.8-2.7-4.95h-.3l-2.7,5-8.5,15.75Z"/>
        <path class="cls-2" d="M184.2,185.27c.2-.87,.3-2.25,.3-4.15v-26.7c0-1.93-.1-3.32-.3-4.15h16.75c5.67,0,10.3,1.62,13.9,4.85,3.6,3.23,5.4,7.45,5.4,12.65s-1.8,9.42-5.4,12.65-8.23,4.85-13.9,4.85h-16.75Zm2.75-2.3h13.9c4.87,0,8.89-1.38,12.08-4.15,3.18-2.77,4.77-6.45,4.77-11.05s-1.59-8.29-4.77-11.08c-3.18-2.78-7.21-4.17-12.08-4.17h-13.9v30.45Z"/>
        <path class="cls-2" d="M264.5,186.02c-1.6,0-2.89-.33-3.88-.97-.98-.65-1.71-1.48-2.17-2.5s-.87-2.15-1.2-3.4-.77-2.5-1.32-3.75c-.55-1.25-1.28-2.38-2.18-3.4-.9-1.02-2.27-1.85-4.12-2.5-1.85-.65-4.12-.97-6.82-.97-5.23,0-8.58,.17-10.05,.5v12.1c0,1.87,.1,3.25,.3,4.15h-3c.13-1.2,.2-2.58,.2-4.15v-26.7c0-1.63-.07-3.02-.2-4.15h21.25c3.6,0,6.48,.78,8.65,2.33s3.25,3.71,3.25,6.47c0,2.43-1.01,4.5-3.02,6.2-2.02,1.7-4.61,2.55-7.78,2.55h-4.2v.35h.25c2,0,3.7,.28,5.1,.85,1.4,.57,2.46,1.3,3.17,2.2,.72,.9,1.31,1.89,1.77,2.97,.47,1.08,.84,2.17,1.12,3.25s.58,2.08,.9,2.98,.8,1.63,1.45,2.2c.65,.57,1.47,.85,2.47,.85,1.43,0,2.68-.63,3.75-1.9l.65,2.6c-1.13,1.23-2.58,1.85-4.35,1.85h.01Zm-31.75-19.21h17.9c2.97,0,5.38-.77,7.25-2.33,1.87-1.55,2.8-3.36,2.8-5.42,0-1.9-.88-3.44-2.62-4.62-1.75-1.18-4.06-1.77-6.92-1.77h-18.4v14.15h0Z"/>
        <path class="cls-2" d="M304.87,181.75c-3.15,2.82-7.28,4.23-12.38,4.23s-9.23-1.41-12.38-4.23c-3.15-2.82-4.73-6.54-4.73-11.17v-16.15c0-1.93-.1-3.32-.3-4.15h3.05c-.17,.93-.25,2.32-.25,4.15v16.1c0,4.03,1.36,7.22,4.08,9.58,2.72,2.35,6.22,3.52,10.53,3.52s7.86-1.17,10.57-3.52c2.72-2.35,4.08-5.54,4.08-9.58v-16.1c0-1.63-.1-3.02-.3-4.15h3.05c-.2,1.13-.3,2.52-.3,4.15v16.15c0,4.63-1.58,8.36-4.72,11.17h0Z"/>
        <path class="cls-2" d="M321.25,185.27c.17-.93,.25-2.32,.25-4.15v-26.7c0-1.83-.08-3.22-.25-4.15h18.8c4.43,0,8.06,1.1,10.88,3.3s4.22,5.22,4.22,9.05-1.41,7-4.22,9.3c-2.82,2.3-6.21,3.45-10.18,3.45-4.3,0-7.97-1.1-11-3.3s-4.83-4.92-5.4-8.15h-.35v17.2c0,1.9,.1,3.28,.3,4.15h-3.05Zm19.4-12.2c3.23,0,6.03-.96,8.4-2.88s3.55-4.44,3.55-7.58-1.12-5.63-3.35-7.4-5.35-2.65-9.35-2.65c-7.23,0-12.53,.13-15.9,.4v5.2c0,3,.86,5.67,2.58,8s3.83,4.07,6.33,5.2c2.5,1.13,5.08,1.7,7.75,1.7h0Z"/>
        <path class="cls-2" d="M385.9,185.97c-1.4,0-3.43-.12-6.1-.35-2.67-.23-4.65-.35-5.95-.35-4.3,0-7.67,.23-10.1,.7,.2-.83,.3-2.45,.3-4.85v-26.7c0-1.93-.1-3.32-.3-4.15h3.05c-.17,.93-.25,2.32-.25,4.15v28.9h18.5c4.23,0,7.48-.28,9.75-.85l-.8,2.8c-1.9,.47-4.6,.7-8.1,.7h0Z"/>
        <path class="cls-2" d="M402.9,185.27c.17-.93,.25-2.32,.25-4.15v-26.7c0-1.83-.08-3.22-.25-4.15h30.25l.75,2.6c-.87-.2-2.25-.3-4.15-.3h-24.1v14h20.5c1.83,0,3.22-.08,4.15-.25v2.75c-.83-.2-2.22-.3-4.15-.3h-20.5v14.15h24.95c1.9,0,3.28-.1,4.15-.3l-.7,2.65h-31.15Z"/>
        <path class="cls-2" d="M455.1,185.27c.8-1.13,1.63-2.52,2.5-4.15l14.5-26.7c1-1.77,1.67-3.15,2-4.15h3.65c.33,1.17,.93,2.52,1.8,4.05l14.55,26.8c1.03,1.93,1.87,3.32,2.5,4.15h-3.25c-.33-.97-.98-2.35-1.95-4.15l-3-5.35h-25.1l-3,5.35c-1.03,1.87-1.68,3.25-1.95,4.15h-3.25Zm9.35-11.7h22.75l-8.55-15.8-2.7-4.95h-.3l-2.7,5-8.5,15.75Z"/>
        <path class="cls-2" d="M521.1,185.97c-6.17,0-11.18-1.66-15.05-4.98-3.87-3.32-5.8-7.67-5.8-13.07s1.95-9.81,5.85-13.23,8.9-5.12,15-5.12c5.07,0,9.52,.98,13.35,2.95l-.35,2.5c-1.67-.97-3.68-1.73-6.05-2.3s-4.68-.85-6.95-.85c-5.3,0-9.68,1.48-13.15,4.43s-5.2,6.82-5.2,11.62,1.72,8.62,5.15,11.45,7.83,4.25,13.2,4.25c3.03,0,5.88-.52,8.55-1.57s4.7-2.48,6.1-4.28v-8.55h-11.5c-2.03,0-3.55,.13-4.55,.4l.65-2.6h17.85v11.55c-1.53,2.2-3.84,3.98-6.92,5.35-3.08,1.37-6.47,2.05-10.17,2.05h-.01Z"/>
        <path class="cls-2" d="M547.84,185.27c.17-.93,.25-2.32,.25-4.15v-26.7c0-1.83-.08-3.22-.25-4.15h30.25l.75,2.6c-.87-.2-2.25-.3-4.15-.3h-24.1v14h20.5c1.83,0,3.22-.08,4.15-.25v2.75c-.83-.2-2.22-.3-4.15-.3h-20.5v14.15h24.95c1.9,0,3.28-.1,4.15-.3l-.7,2.65h-31.15Z"/>
        <path class="cls-2" d="M589.14,185.27c.2-1.13,.3-2.52,.3-4.15v-26.7c0-1.63-.1-3.02-.3-4.15h2.95l29.55,30.7h.5v-26.55c0-1.83-.08-3.22-.25-4.15h3.05c-.2,.83-.3,2.22-.3,4.15v30.85h-2.35l-29.9-30.95h-.5v26.8c0,1.63,.1,3.02,.3,4.15h-3.05Z"/>
        <path class="cls-2" d="M655.94,185.97c-6.2,0-11.3-1.67-15.3-5s-6-7.7-6-13.1,2.01-9.76,6.02-13.17c4.02-3.42,9.12-5.12,15.33-5.12,4.87,0,9,1.03,12.4,3.1l-.3,2.7c-3.13-2.33-7.18-3.5-12.15-3.5-5.4,0-9.88,1.48-13.45,4.43s-5.35,6.81-5.35,11.57,1.77,8.62,5.32,11.48c3.55,2.85,8.06,4.27,13.53,4.27,2.63,0,5.2-.38,7.7-1.12s4.52-1.77,6.05-3.07v2.75c-1.67,1.2-3.73,2.13-6.2,2.8-2.47,.67-5,1-7.6,1v-.02Z"/>
        <path class="cls-2" d="M690.75,185.17c.2-.87,.3-2.25,.3-4.15v-9.15l-14-17.45c-1.6-2.03-2.77-3.42-3.5-4.15h3.55c.6,1.03,1.6,2.42,3,4.15l11.95,14.85h.35l12.05-14.85c1.4-1.73,2.4-3.12,3-4.15h3.55c-.73,.73-1.9,2.12-3.5,4.15l-14,17.45v9.15c0,1.63,.1,3.02,.3,4.15h-3.05Z"/>
      </g>
      <line class="cls-1" y1="172.03" x2="64" y2="172.02"/>
      <line class="cls-1" x1="680" y1="172.03" x2="744" y2="172.02"/>
    </g>
  </g>
</svg>